<?xml version="1.0" standalone="no"?>
<!DOCTYPE svg PUBLIC "-//W3C//DTD SVG 20010904//EN"
 "http://www.w3.org/TR/2001/REC-SVG-20010904/DTD/svg10.dtd">
<svg version="1.0" xmlns="http://www.w3.org/2000/svg"
 width="512.000000pt" height="512.000000pt" viewBox="0 0 512.000000 512.000000"
 preserveAspectRatio="xMidYMid meet">
<metadata>
Created by potrace 1.11, written by Peter Selinger 2001-2013
</metadata>
<g transform="translate(0.000000,512.000000) scale(0.100000,-0.100000)"
fill="#000000" stroke="none">
<path d="M990 3253 c-244 -30 -469 -133 -619 -284 -146 -146 -229 -334 -218
-494 6 -87 11 -107 41 -170 81 -164 293 -264 599 -281 62 -4 113 -7 113 -8 1
0 -15 -48 -37 -106 -21 -57 -36 -106 -33 -109 8 -8 145 -1 188 10 84 21 146
63 181 123 13 23 56 133 95 246 119 340 131 374 141 398 5 13 9 27 9 32 0 6
-67 10 -163 10 l-164 0 -82 -229 -83 -230 -61 5 c-167 13 -295 90 -349 211
-25 57 -30 175 -11 257 38 166 166 334 318 418 53 29 160 54 212 49 9 -1 11
-12 7 -35 -13 -86 48 -180 139 -215 155 -58 323 37 328 186 3 84 -40 151 -126
196 -36 20 -56 22 -220 22 -99 1 -191 -1 -205 -2z"/>
<path d="M2420 3245 c-303 -53 -423 -222 -331 -464 l18 -49 -38 -11 c-21 -6
-78 -32 -127 -56 -214 -107 -325 -283 -282 -445 24 -92 138 -168 285 -191 33
-6 254 -9 495 -7 l435 3 48 28 c48 28 102 106 75 108 -7 0 -193 2 -413 3 -408
3 -432 5 -492 43 -28 18 -53 72 -53 115 0 123 72 211 240 297 58 29 117 65
132 81 31 33 30 51 -9 178 -49 159 -5 238 133 237 l58 0 -3 -56 c-4 -98 46
-172 142 -207 128 -48 270 13 313 136 l17 48 207 -1 207 0 -13 -40 c-12 -37
-59 -172 -184 -525 -28 -80 -62 -179 -76 -220 -14 -41 -28 -82 -31 -90 -3 -8
-16 -44 -28 -78 l-22 -64 132 4 c119 3 135 5 166 27 28 19 288 326 517 607 28
36 52 61 52 56 0 -9 -18 -58 -40 -107 -4 -11 -34 -87 -65 -170 -31 -82 -63
-163 -70 -180 -70 -159 -51 -235 64 -248 92 -10 125 13 312 218 35 39 109 120
164 179 55 60 103 113 107 119 4 6 10 9 13 5 3 -3 -17 -63 -46 -134 -28 -71
-52 -133 -54 -139 -1 -5 -7 -23 -14 -40 -28 -68 -35 -113 -23 -140 22 -48 60
-55 299 -55 236 1 290 8 340 46 33 25 68 78 59 92 -2 4 -88 6 -190 6 -103 -1
-189 2 -191 7 -3 4 1 23 9 41 9 18 26 62 40 98 154 409 166 444 166 486 0 52
-21 89 -63 110 -35 18 -110 20 -152 4 -17 -6 -124 -104 -238 -218 -114 -114
-204 -196 -199 -182 6 14 46 120 91 237 57 150 81 225 81 256 0 82 -57 120
-162 111 -87 -8 -139 -46 -269 -195 -325 -370 -333 -378 -315 -333 29 71 180
516 186 548 4 22 4 51 -1 65 -19 55 -27 56 -374 57 -204 1 -325 -2 -332 -8 -7
-6 -27 -35 -45 -66 l-31 -55 -19 24 c-75 100 -87 103 -333 105 -119 0 -238 -4
-275 -11z"/>
</g>
</svg>
